<svg width="16" height="20" viewBox="0 0 16 20" fill="none" xmlns="http://www.w3.org/2000/svg">
<path fill-rule="evenodd" clip-rule="evenodd" d="M2.59976 0.199951C1.9102 0.199951 1.24888 0.473871 0.761276 0.961471C0.273686 1.44906 -0.000244141 2.11038 -0.000244141 2.79995V17.2C-0.000244141 17.8895 0.273686 18.5508 0.761276 19.0384C1.24887 19.526 1.91019 19.8 2.59976 19.8H13.3997C14.0893 19.8 14.7506 19.526 15.2382 19.0384C15.7258 18.5508 15.9997 17.8895 15.9997 17.2V15.8C15.9997 15.3581 15.6416 15 15.1997 15C14.7579 15 14.3997 15.3581 14.3997 15.8V17.2C14.3997 17.4652 14.2944 17.7195 14.1068 17.9071C13.9193 18.0946 13.6649 18.2 13.3997 18.2H2.59976C2.33454 18.2 2.08019 18.0946 1.89265 17.9071C1.70512 17.7195 1.59976 17.4652 1.59976 17.2V2.79995C1.59976 2.53473 1.70512 2.28038 1.89265 2.09284C2.08019 1.9053 2.33454 1.79995 2.59976 1.79995H8.99973V6.39995C8.99973 6.61212 9.08403 6.8156 9.23403 6.96563C9.38413 7.11566 9.58763 7.19995 9.79973 7.19995H14.3997V12.2C14.3997 12.6418 14.7579 13 15.1997 13C15.6416 13 15.9997 12.6418 15.9997 12.2V6.39995C15.9997 6.18777 15.9154 5.98429 15.7654 5.83426L10.3654 0.434261C10.2154 0.284231 10.0119 0.199951 9.79973 0.199951H2.59976ZM13.2684 5.59995L10.5997 2.93132V5.59995H13.2684ZM4.39976 6.49995C3.95793 6.49995 3.59976 6.85812 3.59976 7.29995C3.59976 7.74178 3.95793 8.09998 4.39976 8.09998H6.19973C6.64163 8.09998 6.99973 7.74178 6.99973 7.29995C6.99973 6.85812 6.64163 6.49995 6.19973 6.49995H4.39976ZM4.39976 10.1C3.95793 10.1 3.59976 10.4581 3.59976 10.9C3.59976 11.3418 3.95793 11.7 4.39976 11.7H11.5997C12.0416 11.7 12.3997 11.3418 12.3997 10.9C12.3997 10.4581 12.0416 10.1 11.5997 10.1H4.39976ZM4.39976 13.7C3.95793 13.7 3.59976 14.0581 3.59976 14.5C3.59976 14.9418 3.95793 15.3 4.39976 15.3H11.5997C12.0416 15.3 12.3997 14.9418 12.3997 14.5C12.3997 14.0581 12.0416 13.7 11.5997 13.7H4.39976Z" fill="#667085"/>
</svg>
