<svg width="100" height="24" viewBox="0 0 100 24" fill="none" xmlns="http://www.w3.org/2000/svg">
<g clip-path="url(#clip0_196_411)">
<path d="M98.3 11.5333L98.1667 11.4L98.2866 11.2533C99.1285 10.2612 99.5622 8.98633 99.5 7.68663C99.36 4.73997 96.7066 2.42664 93.4533 2.42664H86.4667C85.9137 2.42834 85.3836 2.6474 84.9907 3.03654C84.5978 3.42568 84.3737 3.9537 84.3667 4.50663V19.4066C84.3667 19.6824 84.421 19.9555 84.5265 20.2103C84.6321 20.4651 84.7867 20.6966 84.9817 20.8916C85.1767 21.0866 85.4083 21.2412 85.663 21.3468C85.9178 21.4523 86.1909 21.5066 86.4667 21.5066H93.4333C95.1278 21.515 96.7658 20.8978 98.0333 19.7733C98.6426 19.2504 99.1333 18.6035 99.4724 17.8757C99.8116 17.1479 99.9914 16.3562 100 15.5533C99.9877 14.0411 99.3763 12.5955 98.3 11.5333ZM88.4533 6.2533H93.74C93.9766 6.22332 94.2168 6.24404 94.4447 6.31408C94.6727 6.38413 94.8831 6.5019 95.062 6.65955C95.2409 6.81721 95.3842 7.01115 95.4823 7.22847C95.5805 7.44579 95.6312 7.68151 95.6312 7.91997C95.6312 8.15843 95.5805 8.39415 95.4823 8.61147C95.3842 8.82879 95.2409 9.02272 95.062 9.18038C94.8831 9.33804 94.6727 9.4558 94.4447 9.52585C94.2168 9.5959 93.9766 9.61662 93.74 9.58664H88.4533V6.2533ZM93.7866 17.6866H88.4533V13.4266H93.7866C94.0764 13.4104 94.3664 13.4535 94.6389 13.5532C94.9114 13.6529 95.1608 13.8072 95.3716 14.0066C95.5825 14.2059 95.7504 14.4463 95.8652 14.7128C95.98 14.9793 96.0392 15.2664 96.0392 15.5566C96.0392 15.8468 95.98 16.134 95.8652 16.4005C95.7504 16.667 95.5825 16.9073 95.3716 17.1067C95.1608 17.3061 94.9114 17.4604 94.6389 17.5601C94.3664 17.6598 94.0764 17.7028 93.7866 17.6866Z" fill="#101828"/>
<path d="M75.7466 10.0401C74.14 9.60673 72.22 9.10672 72.1466 7.80673C72.0933 6.89339 72.8133 6.12673 73.9867 5.98006C76.3467 5.68006 78.4733 7.07339 79.58 7.34673C79.8247 7.39227 80.0763 7.38635 80.3187 7.32934C80.561 7.27233 80.7889 7.16549 80.9876 7.01561C81.1864 6.86573 81.3519 6.67609 81.4733 6.45878C81.5948 6.24147 81.6698 6.00124 81.6933 5.7534C81.8733 4.32673 80.46 3.54673 79.9267 3.22006C78.4353 2.37559 76.7394 1.96026 75.0267 2.02006C70.8267 2.02006 67.9 4.44673 67.9 7.92006C67.8609 8.75266 68.03 9.58188 68.392 10.3327C68.754 11.0835 69.2975 11.7322 69.9733 12.2201C72.64 14.2201 77.88 14.0001 77.8867 16.0734C77.8867 17.9401 74.4467 19.0934 70.6533 16.5801C70.3763 16.3609 70.0432 16.2241 69.6921 16.1855C69.341 16.1469 68.9862 16.208 68.6682 16.3618C68.3502 16.5156 68.082 16.7558 67.8942 17.055C67.7065 17.3542 67.6068 17.7002 67.6066 18.0534C67.6051 18.3889 67.695 18.7185 67.8667 19.0067L67.7933 19.0467H67.8667L67.9333 19.1534C68.3271 19.6953 68.8231 20.1551 69.3933 20.5067C71.0299 21.498 72.9214 21.9871 74.8333 21.9134C76.7552 22.006 78.651 21.4391 80.2066 20.3067C80.8582 19.7726 81.3777 19.0952 81.7246 18.3274C82.0715 17.5596 82.2365 16.7221 82.2066 15.8801C82.2333 12.2467 79.1066 10.9601 75.7466 10.0401Z" fill="#101828"/>
<path d="M63.38 2.43335H62.0866C61.7215 2.43374 61.3639 2.53717 61.0549 2.73176C60.7459 2.92635 60.4981 3.2042 60.34 3.53335L55.9 12.68L51.4733 3.53335C51.317 3.20423 51.0705 2.92619 50.7625 2.73149C50.4546 2.53678 50.0977 2.43341 49.7333 2.43335H48.44C47.8916 2.44022 47.3676 2.66066 46.9791 3.04782C46.5907 3.43498 46.3686 3.95834 46.36 4.50668V19.64C46.3636 20.0058 46.4639 20.3642 46.6508 20.6787C46.8377 20.9932 47.1045 21.2526 47.424 21.4307C47.7436 21.6087 48.1046 21.6991 48.4704 21.6925C48.8361 21.686 49.1937 21.5828 49.5067 21.3934C49.7963 21.2325 50.0371 20.9965 50.2037 20.7102C50.3703 20.4239 50.4566 20.0979 50.4533 19.7667V10.7734L54.1266 17.84C54.2925 18.1728 54.5479 18.4528 54.8641 18.6485C55.1803 18.8442 55.5448 18.9479 55.9166 18.9479C56.2885 18.9479 56.653 18.8442 56.9692 18.6485C57.2854 18.4528 57.5408 18.1728 57.7066 17.84L61.38 10.7867V19.7667C61.3782 20.0977 61.465 20.4231 61.6315 20.7091C61.7979 20.9952 62.038 21.2314 62.3267 21.3934C62.6396 21.5828 62.9972 21.686 63.3629 21.6925C63.7287 21.6991 64.0897 21.6087 64.4093 21.4307C64.7288 21.2526 64.9956 20.9932 65.1825 20.6787C65.3694 20.3642 65.4697 20.0058 65.4733 19.64V4.50668C65.4663 3.95552 65.2429 3.4292 64.8513 3.04131C64.4596 2.65341 63.9312 2.43506 63.38 2.43335Z" fill="#101828"/>
<path d="M17.72 22.04L6.56668 8.74663C5.66077 7.6623 5.22216 6.2628 5.34716 4.85539C5.47215 3.44797 6.15052 2.14767 7.23335 1.23996C8.31767 0.334048 9.71718 -0.104557 11.1246 0.0204352C12.532 0.145428 13.8323 0.823802 14.74 1.90662L25.9 15.1733C26.8059 16.2576 27.2445 17.6571 27.1195 19.0645C26.9945 20.4719 26.3162 21.7722 25.2333 22.68C24.152 23.5911 22.7531 24.0355 21.3442 23.9155C19.9353 23.7954 18.6317 23.1208 17.72 22.04Z" fill="url(#paint0_radial_196_411)"/>
<path d="M29.78 6.43999L27.0133 19.68C26.8735 20.3678 26.5992 21.0212 26.2063 21.6028C25.8134 22.1844 25.3095 22.6828 24.7236 23.0692C24.1377 23.4557 23.4813 23.7227 22.7919 23.855C22.1026 23.9873 21.394 23.9822 20.7067 23.84C20.0172 23.6981 19.3627 23.4211 18.7808 23.025C18.1989 22.6289 17.7012 22.1216 17.3163 21.5322C16.9314 20.9428 16.6671 20.2831 16.5384 19.591C16.4097 18.899 16.4193 18.1883 16.5667 17.5L19.3333 4.25999C19.6234 2.87839 20.4495 1.66818 21.6305 0.894635C22.8114 0.121088 24.2509 -0.152685 25.6333 0.133326C26.3199 0.274699 26.9719 0.550045 27.552 0.943616C28.1322 1.33719 28.629 1.84126 29.0141 2.427C29.3992 3.01275 29.6651 3.66867 29.7965 4.35726C29.928 5.04584 29.9223 5.75358 29.78 6.43999Z" fill="url(#paint1_radial_196_411)"/>
<path d="M31.6333 22.04L20.48 8.74663C19.5741 7.6623 19.1355 6.2628 19.2605 4.85539C19.3855 3.44797 20.0639 2.14767 21.1467 1.23996C22.231 0.334048 23.6305 -0.104557 25.0379 0.0204352C26.4453 0.145428 27.7456 0.823802 28.6533 1.90662L39.7933 15.1733C40.6993 16.2576 41.1379 17.6571 41.0129 19.0645C40.8879 20.4719 40.2095 21.7722 39.1267 22.68C38.0465 23.5848 36.652 24.0254 35.248 23.9055C33.844 23.7856 32.5445 23.1149 31.6333 22.04Z" fill="url(#paint2_radial_196_411)"/>
<path d="M10.64 18.18C10.7292 19.2684 10.4821 20.3579 9.93222 21.3013C9.38231 22.2447 8.55606 22.9966 7.56511 23.4554C6.57416 23.9142 5.46626 24.0577 4.39112 23.8666C3.31598 23.6755 2.32541 23.159 1.55325 22.3868C0.781092 21.6146 0.264568 20.6241 0.0734619 19.5489C-0.117644 18.4738 0.0258793 17.3659 0.484646 16.3749C0.943412 15.384 1.69531 14.5577 2.63874 14.0078C3.58217 13.4579 4.67166 13.2109 5.76001 13.3C7.01978 13.4033 8.20195 13.9505 9.09573 14.8443C9.98951 15.7381 10.5368 16.9203 10.64 18.18Z" fill="url(#paint3_radial_196_411)"/>
</g>
<defs>
<radialGradient id="paint0_radial_196_411" cx="0" cy="0" r="1" gradientUnits="userSpaceOnUse" gradientTransform="translate(18.6407 6.79096) scale(10.5467)">
<stop stop-color="#9D0B0F"/>
<stop offset="0.07" stop-color="#AA0E12"/>
<stop offset="0.26" stop-color="#C7141A"/>
<stop offset="0.44" stop-color="#DB1820"/>
<stop offset="0.62" stop-color="#E81B23"/>
<stop offset="0.8" stop-color="#EC1C24"/>
</radialGradient>
<radialGradient id="paint1_radial_196_411" cx="0" cy="0" r="1" gradientUnits="userSpaceOnUse" gradientTransform="translate(28.44 12.5027) scale(10.5817 10.5817)">
<stop offset="0.3" stop-color="#9D0B0F"/>
<stop offset="0.35" stop-color="#AA0E12"/>
<stop offset="0.48" stop-color="#C7141A"/>
<stop offset="0.6" stop-color="#DB1820"/>
<stop offset="0.73" stop-color="#E81B23"/>
<stop offset="0.85" stop-color="#EC1C24"/>
</radialGradient>
<radialGradient id="paint2_radial_196_411" cx="0" cy="0" r="1" gradientUnits="userSpaceOnUse" gradientTransform="translate(20.841 1.23996) scale(22.575)">
<stop offset="0.35" stop-color="#EC1C24"/>
<stop offset="1" stop-color="#F26F21"/>
</radialGradient>
<radialGradient id="paint3_radial_196_411" cx="0" cy="0" r="1" gradientUnits="userSpaceOnUse" gradientTransform="translate(3.27801 20.35) scale(7.92167 7.92166)">
<stop offset="0.3" stop-color="#EC1C24"/>
<stop offset="1" stop-color="#9D0B0F"/>
</radialGradient>
<clipPath id="clip0_196_411">
<rect width="100" height="23.9333" fill="white"/>
</clipPath>
</defs>
</svg>
