<svg width="41" height="40" viewBox="0 0 41 40" fill="none" xmlns="http://www.w3.org/2000/svg">
<g clip-path="url(#clip0_1_3415)">
<path d="M29.5013 35.8335L27.0013 33.3335L29.5013 30.8335" stroke="#F4600C" stroke-width="2" stroke-linecap="round" stroke-linejoin="round"/>
<path d="M27.0013 33.3335H30.3346C31.6607 33.3335 32.9325 32.8067 33.8701 31.869C34.8078 30.9313 35.3346 29.6596 35.3346 28.3335" stroke="#F4600C" stroke-width="2" stroke-linecap="round" stroke-linejoin="round"/>
<path d="M8.66665 35H18.6666C19.5507 35 20.3985 34.6488 21.0237 34.0237C21.6488 33.3986 22 32.5507 22 31.6667V20C22 19.116 21.6488 18.2681 21.0237 17.643C20.3985 17.0179 19.5507 16.6667 18.6666 16.6667H8.66665C7.78259 16.6667 6.93474 17.0179 6.30962 17.643C5.6845 18.2681 5.33331 19.116 5.33331 20V31.6667C5.33331 32.5507 5.6845 33.3986 6.30962 34.0237C6.93474 34.6488 7.78259 35 8.66665 35Z" fill="#F4600C" stroke="#F4600C" stroke-width="1.5" stroke-linecap="round" stroke-linejoin="round"/>
<path d="M27.3903 23.3333H31.9987C32.8827 23.3333 33.7306 22.9821 34.3557 22.357C34.9808 21.7319 35.332 20.8841 35.332 20V8.33333C35.332 7.44928 34.9808 6.60143 34.3557 5.97631C33.7306 5.35119 32.8827 5 31.9987 5H21.9987C21.1146 5 20.2668 5.35119 19.6417 5.97631C19.0165 6.60143 18.6653 7.44928 18.6653 8.33333V11.6667" stroke="#F4600C" stroke-width="2" stroke-linecap="round" stroke-linejoin="round"/>
<path d="M11.1653 4.1665L13.6653 6.6665L11.1653 9.1665" stroke="#F4600C" stroke-width="2" stroke-linecap="round" stroke-linejoin="round"/>
<path d="M13.6666 6.66669H10.3333C9.00723 6.66669 7.73546 7.19347 6.79778 8.13115C5.8601 9.06884 5.33331 10.3406 5.33331 11.6667" stroke="#F4600C" stroke-width="2" stroke-linecap="round" stroke-linejoin="round"/>
</g>
<defs>
<clipPath id="clip0_1_3415">
<rect width="40" height="40" fill="white" transform="translate(0.333313)"/>
</clipPath>
</defs>
</svg>
