<svg width="15" height="18" viewBox="0 0 15 18" fill="none" xmlns="http://www.w3.org/2000/svg">
<path fill-rule="evenodd" clip-rule="evenodd" d="M5.25869 4.65022C5.25869 3.15905 6.46752 1.95022 7.95869 1.95022C9.44986 1.95022 10.6587 3.15905 10.6587 4.65022C10.6587 6.14139 9.44986 7.35022 7.95869 7.35022C6.46752 7.35022 5.25869 6.14139 5.25869 4.65022ZM7.95869 0.35022C5.58387 0.35022 3.65869 2.2754 3.65869 4.65022C3.65869 7.02504 5.58387 8.95022 7.95869 8.95022C10.3335 8.95022 12.2587 7.02504 12.2587 4.65022C12.2587 2.2754 10.3335 0.35022 7.95869 0.35022ZM5.36299 10.9498C4.19485 10.9498 3.07455 11.4131 2.24854 12.2378C1.42254 13.0625 0.958496 14.181 0.958496 15.3473V17.1421C0.958496 17.5882 1.32069 17.9498 1.76748 17.9498C2.21428 17.9498 2.57647 17.5882 2.57647 17.1421V15.3473C2.57647 14.6094 2.87005 13.9018 3.39263 13.3801C3.9152 12.8583 4.62396 12.5652 5.36299 12.5652H10.554C11.293 12.5652 12.0018 12.8583 12.5244 13.3801C13.0469 13.9018 13.3405 14.6094 13.3405 15.3473V17.1421C13.3405 17.5882 13.7027 17.9498 14.1495 17.9498C14.5963 17.9498 14.9585 17.5882 14.9585 17.1421V15.3473C14.9585 14.181 14.4945 13.0625 13.6684 12.2378C12.8424 11.4131 11.7221 10.9498 10.554 10.9498H5.36299Z" fill="#667085"/>
</svg>
